<svg xmlns="http://www.w3.org/2000/svg" width="444" height="396"><path fill="#a9fd01" d="M135.106 115.11q3.379-.012 6.758-.032c6.1-.028 12.198-.011 18.297.015 6.392.021 12.783.008 19.174 0a8026 8026 0 0 1 34.252.057q15.509.05 31.017.013 19.965-.044 39.93-.005 7.612.014 15.225-.006 8.967-.02 17.934.041 3.286.016 6.572-.002c2.997-.015 5.992.008 8.988.04l2.612-.038c9.228.184 15.323 5.638 21.667 11.92l1.458 1.431a836 836 0 0 1 4.65 4.628l3.29 3.265q3.425 3.407 6.837 6.829c2.896 2.902 5.811 5.786 8.731 8.666q3.396 3.362 6.769 6.744a595 595 0 0 0 3.22 3.19c14.56 14.345 17.508 27.89 17.658 47.751.017 3.348.022 6.696.023 10.043l.01 5.397q.009 5.628.007 11.258c0 4.786.014 9.573.031 14.36q.015 5.562.013 11.126 0 2.646.013 5.292c.062 15.396-.848 29.622-11.012 42.075a90 90 0 0 1-3.484 3.262c-2.491 2.24-4.55 4.802-6.68 7.383-1.814 1.92-3.657 3.588-5.66 5.304-6.032 5.208-11.51 10.976-17.072 16.676-10.73 10.87-19.398 16.078-34.792 16.333q-2.295.007-4.592.001l-2.584.005c-2.827.004-5.654 0-8.48-.003l-6.119.006q-8.278.005-16.556 0c-5.79-.003-11.58 0-17.37 0q-14.588.004-29.176-.005-16.83-.006-33.66.002-14.48.007-28.96.003-8.636-.003-17.27.001-8.125.004-16.25-.005-2.97 0-5.938.002c-26.079.026-39.884-3.373-58.759-22.074q-2.839-2.836-5.663-5.689c-1.92-1.938-3.849-3.868-5.778-5.798-17.963-18.014-29.603-32.767-29.756-59.14.004-2.282.022-4.564.04-6.846q.006-2.443.007-4.887.007-5.08.04-10.16c.03-4.304.04-8.608.044-12.912q.01-6.24.035-12.479l.006-2.342c.105-33.401.105-33.401 6.502-40.286L54 173c5.362-5.285 10.579-10.583 15.465-16.312 1.974-2.17 4.209-3.91 6.535-5.688l1-2h2v-2h2v-2h2v-2c1.504-1.48 1.504-1.48 3.563-3.187 4.999-4.258 9.733-8.602 13.75-13.813 9.985-11.652 20.422-11.002 34.793-10.89m-29.064 78.053c-1.345 3.663-1.554 7.118-1.62 10.975l-.075 2.408a668 668 0 0 0-.167 7.852l-.049 2.732q-.118 7.165-.181 14.332-.06 5.887-.246 11.772c-1.942 23.815-1.942 23.815 6.352 45.053 2.467 2.376 4.954 4.426 7.864 6.236C120 296 120 296 121.47 297.754c3.674 4.274 7.024 5.667 12.649 6.116 4.34.194 8.672.229 13.015.242q2.939.045 5.876.1c5.311.088 10.621.13 15.932.156q4.99.03 9.979.075c10.431.09 20.862.153 31.293.176 11.997.026 23.99.14 35.986.331 9.3.144 18.598.21 27.899.216 5.542.006 11.08.044 16.621.163 26.194 1.427 26.194 1.427 49.43-8.575 7.557-7.566 11.941-15.827 12.304-26.581-.035-2.704-.159-5.394-.29-8.095a707 707 0 0 1-.043-5.776c-.033-3.993-.13-7.978-.283-11.969-.193-5.098-.272-10.19-.309-15.29-.04-4.906-.138-9.81-.24-14.715l-.043-2.796c.164-12.582.164-12.582-5.725-23.183L344 187l-1.979-2.238-1.712-1.719-1.924-1.932-1.947-1.923-1.96-1.983-1.92-1.912c-.563-.562-1.127-1.124-1.709-1.702-4.724-4.064-8.567-5.046-14.712-5.093l-2.381-.053a955 955 0 0 0-7.89-.119l-5.664-.103c-6.203-.11-12.405-.186-18.608-.254l-3.206-.036c-9.995-.11-19.99-.204-29.985-.267a2960 2960 0 0 1-38.228-.482c-8.98-.168-17.96-.254-26.941-.282-5.354-.019-10.701-.072-16.053-.214-28.697-.728-45.113.587-61.139 26.475"/><path fill="#aafd02" d="m157.149 44.866 3.305-.013 3.643.002 3.824-.01q5.2-.013 10.4-.012 4.34-.002 8.679-.008 10.236-.013 20.473-.01 10.564-.001 21.128-.026a7991 7991 0 0 1 18.13-.018q5.415.002 10.832-.013c4.027-.011 8.054-.007 12.081 0 1.198-.007 2.396-.012 3.63-.018l3.323.013 2.886-.002c2.66.263 4.277.808 6.517 2.249 1.187 2.373 1.14 3.846 1.161 6.494l.03 2.822.012 3.055.017 3.131q.014 3.282.02 6.565c.01 3.353.041 6.706.073 10.06q.009 3.184.015 6.37l.038 3.049-.01 2.83.011 2.492c-.47 2.733-1.178 3.453-3.367 5.132-2.435.38-2.435.38-5.383.388l-3.386.03-3.717-.014-3.913.02c-3.543.019-7.087.018-10.63.012-2.957-.003-5.915.003-8.872.009q-10.464.02-20.93.001a4061 4061 0 0 0-21.595.03q-9.27.032-18.538.022-5.538-.007-11.074.017c-4.116.018-8.23.004-12.347-.013l-3.71.029-3.395-.03h-2.95c-3.293-.644-4.487-1.919-6.56-4.501-.501-2.118-.501-2.118-.502-4.414l-.028-2.62.034-2.806-.005-2.906q.004-3.04.034-6.08c.03-3.097.021-6.192.008-9.29q.01-2.955.025-5.911l-.008-2.8c.07-4.845.228-8.272 3.442-12.173 2.54-1.27 4.306-1.129 7.149-1.134"/><path fill="#9fd92f" d="m333 162 4 2-1 4-3-1 3 10h2v2h2v2l2.188.188c3.712 1.072 5.324 2.91 7.812 5.812l1 3c2 1.209 2 1.209 4 2v4h2v35h-1l-1 49h-2v4c-1.375 1.75-1.375 1.75-3 3h-2v2l2 1-1 4-6 1v2c-2.56 2.214-5.183 4.122-8 6v6l-207-1-2-5h-2v-2h-2v-2l-5-1-1-5c-1.207.03-1.207.03-2.437.063C111 293 111 293 110 292q-.061-3.5 0-7h-7l-2-5-5 2v-4h2l-.035-3.687c-.105-16.787.44-33.54 1.035-50.313h-3a673 673 0 0 1-.062-4.75l-.036-2.672c.09-2.366.516-4.3 1.098-6.578l-.562-2.125L96 206l2-2c-.33-3.297-.623-4.623-3-7-.125-3.625-.125-3.625 0-7l4-1 1 6h3l-.375-2.5c.41-3.834 1.072-4.684 3.438-7.562 2.604-3.02 2.604-3.02 2.812-6.938l-.875-2h4l1 2h3l.351-2.234c1.175-5.007 3.25-8.03 7.649-10.766 6.297-1.201 12.53-1.032 18.92-.94q2.92-.001 5.84-.013c5.28-.011 10.558.028 15.837.076 5.53.043 11.061.041 16.592.045 9.289.013 18.578.056 27.867.119 11.91.08 23.819.115 35.728.134 10.253.017 20.506.051 30.759.09l6.591.023c6.268.02 12.535.048 18.802.093q2.844.02 5.688.027 3.892.014 7.786.052l2.252-.001c5.312.067 10.198.978 15.338 2.295zm-226.958 31.163c-1.345 3.663-1.554 7.118-1.62 10.975l-.075 2.408a668 668 0 0 0-.167 7.852l-.049 2.732q-.118 7.165-.181 14.332-.06 5.887-.246 11.772c-1.942 23.815-1.942 23.815 6.352 45.053 2.467 2.376 4.954 4.426 7.864 6.236C120 296 120 296 121.47 297.754c3.674 4.274 7.024 5.667 12.649 6.116 4.34.194 8.672.229 13.015.242q2.939.045 5.876.1c5.311.088 10.621.13 15.932.156q4.99.03 9.979.075c10.431.09 20.862.153 31.293.176 11.997.026 23.99.14 35.986.331 9.3.144 18.598.21 27.899.216 5.542.006 11.08.044 16.621.163 26.194 1.427 26.194 1.427 49.43-8.575 7.557-7.566 11.941-15.827 12.304-26.581-.035-2.704-.159-5.394-.29-8.095a707 707 0 0 1-.043-5.776c-.033-3.993-.13-7.978-.283-11.969-.193-5.098-.272-10.19-.309-15.29-.04-4.906-.138-9.81-.24-14.715l-.043-2.796c.164-12.582.164-12.582-5.725-23.183L344 187l-1.979-2.238-1.712-1.719-1.924-1.932-1.947-1.923-1.96-1.983-1.92-1.912c-.563-.562-1.127-1.124-1.709-1.702-4.724-4.064-8.567-5.046-14.712-5.093l-2.381-.053a955 955 0 0 0-7.89-.119q-2.833-.05-5.664-.103c-6.203-.11-12.405-.186-18.608-.254l-3.206-.036c-9.995-.11-19.99-.204-29.985-.267a2960 2960 0 0 1-38.228-.482c-8.98-.168-17.96-.254-26.941-.282-5.354-.019-10.701-.072-16.053-.214-28.697-.728-45.113.587-61.139 26.475"/><path fill="#b3f824" d="M135.106 115.11q3.379-.012 6.758-.032c6.1-.028 12.198-.011 18.297.015 6.392.021 12.783.008 19.174 0a8026 8026 0 0 1 34.252.057q15.509.05 31.017.013 19.965-.044 39.93-.005 7.612.014 15.225-.006 8.967-.02 17.934.041 3.286.016 6.572-.002c2.997-.015 5.992.008 8.988.04l2.612-.038c9.228.184 15.323 5.638 21.667 11.92l1.458 1.431a836 836 0 0 1 4.65 4.628l3.29 3.265q3.425 3.407 6.837 6.829c2.896 2.902 5.811 5.786 8.731 8.666q3.396 3.362 6.769 6.744a595 595 0 0 0 3.22 3.19c14.56 14.345 17.508 27.89 17.658 47.751.017 3.348.022 6.696.023 10.043l.01 5.397q.009 5.628.007 11.258c0 4.786.014 9.573.031 14.36q.015 5.562.013 11.126 0 2.646.013 5.292c.062 15.396-.848 29.622-11.012 42.075a90 90 0 0 1-3.484 3.262c-1.922 1.728-3.524 3.59-5.183 5.57-2.854 3.308-5.901 6.108-9.231 8.926-5.003 4.45-9.635 9.306-14.332 14.074l-1-2 1-3h2l.313-2.312c.73-2.859 1.457-3.845 3.687-5.688l-1-3 5-1 1-3h5l-.312-2.25C383 316 383 316 385.5 313.688L388 312l-1-5 4-1v2c3.26-1.727 3.26-1.727 4-5.062l1-2.938 3-1c8.462-9.188 6.859-21.932 6.805-33.512q.017-3.272.041-6.544c.036-5.71.037-11.419.03-17.128-.001-5.84.032-11.678.062-17.517.053-11.433.07-22.866.062-34.299l-4-1v-5h-2l-1-7-3 1-4-4 3-1-2-1.812C391 169 391 169 391 166l-2.312-.187c-2.688-.813-2.688-.813-4.5-3.25C383 160 383 160 383 158l-1.812-.312c-2.47-.777-3.51-1.759-5.188-3.688l-1 2-1-2h-2v-2h2l-3-3-3 2-.25-2.875L367 145a90 90 0 0 0-4-2l-1-5c-1.85-1.05-1.85-1.05-4-2-4-4.444-4-4.444-4-7h-2c-1.593-1.455-3.009-3.01-4.437-4.625-1.817-1.598-3.205-1.968-5.563-2.375v-2l-226-1v2l-2.875.25L110 122c-1.167 1.917-1.167 1.917-2 4l-2.062 1-1.938 1-.437 1.813c-1.036 4.025-4.516 6.41-7.75 8.812-2.081 1.423-2.081 1.423-3.813 4.375l-3-1v5l-3 1c-1.813 1.864-1.813 1.864-3.562 4.063A73 73 0 0 1 79 156h-2v2h-4l-1 5h-2l-1 4h-2v2l-5 1 2 6-2.687-.312c-3.434.045-3.434.045-6.125 2.312-4.12 5.649-3.337 13.32-3.333 20.106l-.01 2.645q-.013 4.288-.013 8.577l-.01 5.99a7956 7956 0 0 0-.007 12.518c0 5.349-.014 10.698-.031 16.046q-.015 6.177-.013 12.354 0 2.958-.013 5.918c-.01 2.752-.007 5.505 0 8.257-.007.815-.012 1.63-.018 2.469.022 3.923.23 6.74 2.26 10.12.321 5.357.321 5.357-1 8l2 1v3q.225 2.097.5 4.188L56 303c-8.289-7.393-10.318-18.34-11.162-29.063-.25-5.116-.21-10.23-.166-15.351l.006-4.887q.007-5.08.04-10.16c.03-4.304.04-8.608.044-12.912q.01-6.24.035-12.479l.006-2.342c.105-33.401.105-33.401 6.502-40.286L54 173c5.362-5.285 10.579-10.583 15.465-16.312 1.974-2.17 4.209-3.91 6.535-5.688l1-2h2v-2h2v-2h2v-2c1.504-1.48 1.504-1.48 3.563-3.187 4.999-4.258 9.733-8.602 13.75-13.813 9.985-11.652 20.422-11.002 34.793-10.89"/><path fill="#b4f730" d="m333 162 4 2-1 4-3-1 1 4h-2v2c-3.375-.547-5.082-1.055-8-3a95 95 0 0 0-7.63-.375l-2.377-.048c-2.639-.05-5.278-.086-7.917-.121l-5.667-.099c-17.296-.29-34.595-.44-51.894-.558a3230 3230 0 0 1-38.312-.483c-8.994-.163-17.987-.249-26.982-.28a728 728 0 0 1-16.085-.212c-25.832-1.565-25.832-1.565-48.153 9.18-3.817 4.07-7.082 8.232-9.983 12.996l-1.938 3.121c-1.384 3.751-1.49 7.247-1.466 11.192l-.02 2.46c-.02 2.671-.015 5.341-.01 8.012q-.007 2.795-.015 5.588-.014 5.847.003 11.694c.011 4.992-.009 9.984-.038 14.976-.018 3.845-.018 7.689-.012 11.533q0 2.761-.019 5.522a620 620 0 0 0 .013 7.719l-.029 2.297c.068 4.91 1.08 7.4 4.531 10.886h-7l-2-5-5 2v-4h2l-.035-3.687c-.105-16.787.44-33.54 1.035-50.313h-3a673 673 0 0 1-.062-4.75l-.036-2.672c.09-2.366.516-4.3 1.098-6.578l-.562-2.125L96 206l2-2c-.33-3.297-.623-4.623-3-7-.125-3.625-.125-3.625 0-7l4-1 1 6h3l-.375-2.5c.41-3.834 1.072-4.684 3.438-7.562 2.604-3.02 2.604-3.02 2.812-6.938l-.875-2h4l1 2h3l.351-2.234c1.175-5.007 3.25-8.03 7.649-10.766 6.297-1.201 12.53-1.032 18.92-.94q2.92-.001 5.84-.013c5.28-.011 10.558.028 15.837.076 5.53.043 11.061.041 16.592.045 9.289.013 18.578.056 27.867.119 11.91.08 23.819.115 35.728.134 10.253.017 20.506.051 30.759.09l6.591.023c6.268.02 12.535.048 18.802.093q2.844.02 5.688.027 3.892.014 7.786.052l2.252-.001c5.312.067 10.198.978 15.338 2.295z"/><path fill="#527f05" d="M113 116a34599 34599 0 0 1 99.85-.334c11.09-.026 22.18-.074 33.27-.129q17.078-.083 34.156-.102c6.392-.007 12.785-.026 19.177-.07q9.03-.059 18.057-.044 3.31-.002 6.62-.036c3.02-.03 6.037-.023 9.056-.007l2.632-.052c9.268.135 15.346 5.581 21.714 11.886l1.458 1.432a836 836 0 0 1 4.65 4.628l3.29 3.265q3.425 3.407 6.837 6.829c2.896 2.902 5.811 5.786 8.731 8.666q3.396 3.362 6.769 6.744a595 595 0 0 0 3.22 3.19c14.56 14.345 17.508 27.89 17.658 47.751.017 3.348.022 6.696.023 10.043l.01 5.397q.009 5.628.007 11.258c0 4.786.014 9.573.031 14.36q.015 5.562.013 11.126 0 2.646.013 5.292c.062 15.396-.848 29.622-11.012 42.075a90 90 0 0 1-3.484 3.262c-1.922 1.728-3.524 3.59-5.183 5.57-2.854 3.308-5.901 6.108-9.231 8.926-5.003 4.45-9.635 9.306-14.332 14.074l-1-2 1-3h2l.313-2.312c.73-2.859 1.457-3.845 3.687-5.688l-1-3 5-1 1-3h5l-.312-2.25C383 316 383 316 385.5 313.688L388 312l-1-5 4-1v2c3.26-1.727 3.26-1.727 4-5.062l1-2.938 3-1c8.462-9.188 6.859-21.932 6.805-33.512q.017-3.272.041-6.544c.036-5.71.037-11.419.03-17.128-.001-5.84.032-11.678.062-17.517.053-11.433.07-22.866.062-34.299l-4-1v-5h-2l-1-7-3 1-4-4 3-1-2-1.812C391 169 391 169 391 166l-2.312-.187c-2.688-.813-2.688-.813-4.5-3.25C383 160 383 160 383 158l-1.812-.312c-2.47-.777-3.51-1.759-5.188-3.688l-1 2-1-2h-2v-2h2l-3-3-3 2-.25-2.875L367 145a90 90 0 0 0-4-2l-1-5c-1.85-1.05-1.85-1.05-4-2-4-4.444-4-4.444-4-7h-2c-1.593-1.455-3.009-3.01-4.437-4.625-1.817-1.598-3.205-1.968-5.563-2.375v-5H113z"/><path fill="#90c42f" d="m157.149 44.866 3.305-.013 3.643.002 3.824-.01q5.2-.013 10.4-.012 4.34-.002 8.679-.008 10.236-.013 20.473-.01 10.564-.001 21.128-.026a7991 7991 0 0 1 18.13-.018q5.415.002 10.832-.013c4.027-.011 8.054-.007 12.081 0 1.198-.007 2.396-.012 3.63-.018l3.323.013 2.886-.002c2.66.263 4.277.808 6.517 2.249 1.187 2.373 1.14 3.846 1.161 6.494l.03 2.822.012 3.055.017 3.131q.014 3.282.02 6.565c.01 3.353.041 6.706.073 10.06q.009 3.184.015 6.37l.038 3.049-.01 2.83.011 2.492c-.47 2.733-1.178 3.453-3.367 5.132-2.435.38-2.435.38-5.383.388l-3.386.03-3.717-.014-3.913.02c-3.543.019-7.087.018-10.63.012-2.957-.003-5.915.003-8.872.009q-10.464.02-20.93.001a4061 4061 0 0 0-21.595.03q-9.27.032-18.538.022-5.538-.007-11.074.017c-4.116.018-8.23.004-12.347-.013l-3.71.029-3.395-.03h-2.95c-3.293-.644-4.487-1.919-6.56-4.501-.501-2.118-.501-2.118-.502-4.414l-.028-2.62.034-2.806-.005-2.906q.004-3.04.034-6.08c.03-3.097.021-6.192.008-9.29q.01-2.955.025-5.911l-.008-2.8c.07-4.845.228-8.272 3.442-12.173 2.54-1.27 4.306-1.129 7.149-1.134M154 49l-1 4h-2c-1.595 3.19-1.163 6.645-1.168 10.148l-.01 2.452q-.007 2.57-.007 5.14c-.002 2.618-.02 5.235-.04 7.854q-.005 2.496-.005 4.992l-.022 2.37c.017 4.152.347 6.234 2.252 10.044h128l1-3 2-1q.185-7.98.275-15.96.038-2.715.102-5.427c.061-2.605.09-5.207.111-7.812l.078-2.44.002-2.305.033-2.012c-1.06-3.603-2.535-4.866-5.601-7.044-3.982-.727-7.913-.631-11.95-.568l-3.668-.002c-3.31.003-6.618.028-9.928.063-3.462.031-6.924.034-10.386.04-6.552.016-13.104.057-19.656.107-7.46.056-14.92.083-22.382.108-15.343.053-30.687.14-46.03.252"/><path fill="#adf915" d="M151 53h2c1.316 6.527 1.367 13.108 1.605 19.74l.114 2.78.092 2.534c-.019 1.95-.019 1.95 1.189 2.946.23 2.834.251 4.54-1.125 7.063L154 90c.783 2.235.783 2.235 2 4h2v-9h3v6q3.906.252 7.813.5l2.236.145c4.285.271 8.201.475 12.451-.207C187 91 187 91 190 92l3-2c3.285-.23 3.285-.23 7.063-.187l3.785.019C207 90 207 90 209 91c1.739.153 3.482.25 5.227.316l3.125.127 3.273.12 3.297.13q4.038.16 8.078.307v-2h37v-2l3 1v3c2.343-.256 4.678-.593 7-1 2.085-4.17.874-9.748.688-14.312l-.108-3.46-.13-3.341c-.039-1.009-.076-2.017-.115-3.056-.346-2.923-1.177-5.142-2.335-7.831v-2h3l1 2 1-5h1v38l-2 1-1 3H152c-2.204-4.408-2.274-7.637-2.23-12.414v-2.457q.006-2.565.024-5.129c.018-2.622.02-5.245.02-7.867q.007-2.493.018-4.985l.003-2.383c.049-5.533.049-5.533 1.165-7.765"/><path fill="#b0f628" d="M116 119a199275 199275 0 0 1 97.622-.056q16.275-.007 32.548-.021 16.689-.014 33.378-.017 9.38 0 18.757-.012 8.817-.01 17.635-.007 3.244 0 6.49-.006 4.413-.006 8.826-.001l2.623-.01c5.893.016 5.893.016 8.121 1.13v2l5 1c-2.62 1.746-4.038 2.387-7 3l-3-4-2 1a224 224 0 0 1-7.852.535l-2.345.13q-3.714.204-7.428.397l-5.031.276q-6.173.337-12.344.662v-2l-2.117.035-2.758.028-2.742.035C290 123 290 123 288 122c-2.713-.232-5.408-.42-8.125-.562l-2.285-.131A1637 1637 0 0 0 272 121l-1 3-7-1v-2l-89 1v2h-15v2h-22v-2h-10l-1 4-1-4c-4.824-.193-8.496.243-13 2l-1-1-1 3h-2v3l-5-2c1-3 1-3 3-4.062l2-.938 1-2c3.063-.625 3.063-.625 6-1z"/><path fill="#5e9522" d="M102 349h4v2l1.934.148 2.504.227c.823.07 1.647.14 2.496.21L115 352l1 2 230 1v-2h6c-8.03 5.354-15.573 5.154-25.05 5.127l-2.584.005c-2.827.004-5.654 0-8.48-.003l-6.119.006q-8.278.005-16.556 0c-5.79-.003-11.58 0-17.37 0q-14.588.003-29.176-.005-16.83-.007-33.66.002-14.48.007-28.96.003-8.636-.003-17.27.001-8.125.004-16.25-.005-2.97 0-5.938.002c-31.803.032-31.803.032-40.587-6.133z"/><path fill="#88bd2c" d="m407 189 2 1c2.085 9.44 1.164 20.03 1.168 29.66l.01 5.397q.009 5.628.007 11.258c0 4.786.014 9.573.031 14.36q.015 5.562.013 11.126 0 2.646.013 5.292c.062 15.396-.848 29.622-11.012 42.075a90 90 0 0 1-3.484 3.262c-1.922 1.728-3.524 3.59-5.183 5.57-2.854 3.308-5.901 6.108-9.231 8.926-5.003 4.45-9.635 9.306-14.332 14.074l-1-2 1-3h2l.313-2.312c.73-2.859 1.457-3.845 3.687-5.688l-1-3 5-1 1-3h5l-.312-2.25C383 316 383 316 385.5 313.688L388 312l-1-5 4-1v2c3.26-1.727 3.26-1.727 4-5.062l1-2.938 3-1c8.368-9.133 6.84-21.741 6.77-33.223q.012-3.231.034-6.462c.03-5.64.026-11.28.013-16.92-.01-6.876.02-13.753.045-20.63.02-5.344.034-10.688.026-16.031l.001-2.963q0-2.745-.01-5.489c.008-6.056.008-6.056 1.121-8.282"/><path fill="#ade14e" d="m120.732 116.278 2.879-.015c3.168-.01 6.334.023 9.502.056q3.415.002 6.831-.003c6.171-.002 12.342.034 18.513.076 6.453.037 12.905.04 19.358.048q16.242.026 32.482.107a12581 12581 0 0 0 35.533.128l10.354.023c28.605.062 57.21.168 85.816.302v3l-226-1v2l-2.875.25L110 122l-1 2-1 2c-3.125.75-3.125.75-6 1v2h-2v2h-2v2h-2v2h-2v2h-2v2h-2v2h-2v2h-2v2h-2v2h-2v2h-2v2h-2v2h-2v2h-2v2h-2v2h-2v2h-2v2h-2v2h-2v2h-2v2h-2v2h-2v2h-2v4l-4-1a1497 1497 0 0 1 15.313-16.875l1.524-1.657A886 886 0 0 1 73 153l2.23-2.383C77 149 77 149 79 149v-2h2v-2h2v-2c1.504-1.48 1.504-1.48 3.563-3.187 5.035-4.288 9.75-8.693 13.875-13.875 6.095-6.988 10.993-9.845 20.294-9.66"/><path fill="#abf720" d="M362 337h2v4l2 1c-10.277 10.824-10.277 10.824-16.875 11.25L346 353v2H114l1-3 3.417.003q41.097.033 82.193.049 19.875.007 39.748.023 17.314.015 34.63.02 9.174 0 18.348.01 8.625.01 17.249.008 3.176 0 6.35.006 4.316.007 8.63.001l2.574.01c3.734.35 3.734.35 6.861-1.13.234-1.849.413-3.705.563-5.562l.253-3.067L336 340h2v2h2v9h4l.438-1.875C345 347 345 347 346 345c2.878-.88 4.726-1.057 7.688-.437L356 345l2-2h3z"/><path fill="#aefa15" d="M96 189h3l1 6h6l-.027 3.193q-.122 14.898-.18 29.796a3199 3199 0 0 1-.095 15.318 2201 2201 0 0 0-.078 14.783q-.01 2.82-.043 5.64a673 673 0 0 0-.031 7.9l-.044 2.354c.038 4.968.986 7.495 4.498 11.016h-7l-2-5-5 2v-4h2l-.035-3.687c-.105-16.787.44-33.54 1.035-50.313h-3a673 673 0 0 1-.062-4.75l-.036-2.672c.09-2.366.516-4.3 1.098-6.578l-.562-2.125L96 206l2-2c-.33-3.297-.623-4.623-3-7-.187-3.562-.187-3.562 0-7z"/><path fill="#6d9d2f" d="M128 167h198v2h2v2h2l-1 2-2.008-1.469c-3.675-1.88-6.828-2-10.862-2.026l-2.383-.05a958 958 0 0 0-7.898-.113q-2.835-.048-5.668-.099c-6.207-.104-12.415-.175-18.622-.24l-3.208-.033c-10-.104-20-.193-30-.253-12.754-.077-25.503-.22-38.255-.454-8.985-.16-17.97-.241-26.956-.267a733 733 0 0 1-16.065-.202c-25.834-1.533-25.834-1.533-48.136 9.261C113.8 182.531 109.612 187.92 107 195h-1v-6h2v-2h2v-2h2v-2h2v-2h2v-2h2v-2h2v-2h2v-2h2v-2h2v-2h2z"/><path fill="#79a823" d="M149 47h1v50h134l1-48h2q.113 9.958.165 19.916.022 3.389.061 6.777c.037 3.244.054 6.488.067 9.733.015 1.012.03 2.025.047 3.068v2.851l.02 2.51C286.9 96.6 286.199 97.315 284 99c-2.435.38-2.435.38-5.383.388l-3.386.03-3.717-.014-3.913.02c-3.543.019-7.087.018-10.63.012-2.957-.003-5.915.003-8.872.009q-10.464.02-20.93.001c-7.198-.011-14.397.003-21.595.03q-9.27.032-18.538.022c-3.692-.003-7.383 0-11.074.017-4.116.018-8.23.004-12.347-.013l-3.71.029-3.395-.03h-2.95c-3.293-.644-4.487-1.918-6.56-4.501-.494-2.125-.494-2.125-.486-4.43l-.018-2.63.043-2.815.003-2.914q.01-3.045.046-6.092c.037-3.108.041-6.214.04-9.322q.015-2.961.036-5.922l.007-2.816.038-2.63.024-2.304c.3-2.394 1.08-4.04 2.267-6.125"/><path fill="#b0f81f" d="M154 49q24.147-.106 48.296-.155c7.474-.016 14.949-.037 22.424-.071q9.771-.046 19.544-.056c3.45-.004 6.899-.013 10.349-.035 3.85-.024 7.7-.025 11.55-.024l3.47-.032 3.178.012 2.76-.008c2.915.443 4.312 1.345 6.429 3.369v2l-4 1v-3l-2.194.492c-2.643.479-5.02.636-7.702.642l-2.905.013-3.152-.002-3.347.01q-5.475.013-10.95.013l-7.61.01q-7.974.009-15.949.007-9.21.001-18.42.026c-5.914.015-11.828.018-17.743.018q-3.77 0-7.54.013c-3.512.01-7.023.007-10.535 0-1.04.007-2.08.012-3.152.018l-2.905-.013-2.514.002c-2.735-.286-4.883-1.128-7.382-2.249l-1 2z"/><path fill="#588500" d="m331 301 1 4H128v-2l3.152-.013q37.905-.155 75.809-.326 18.33-.085 36.66-.158 15.97-.065 31.94-.14 8.462-.04 16.924-.072 7.954-.03 15.909-.071 2.929-.015 5.857-.023 3.98-.014 7.96-.039l2.373-.003c3.5.292 3.5.292 6.416-1.155"/><path fill="#b3f823" d="M151 53h2c1.316 6.527 1.367 13.108 1.605 19.74l.114 2.78.092 2.534c-.019 1.95-.019 1.95 1.189 2.946.23 2.834.251 4.54-1.125 7.063L154 90c.783 2.235.783 2.235 2 4h2v-9h3v6l11 1v2l3.777-.016c34.755-.132 69.476.292 104.223 1.016v1H152c-2.204-4.408-2.274-7.637-2.23-12.414v-2.457q.006-2.565.024-5.129c.018-2.622.02-5.245.02-7.867q.007-2.493.018-4.985l.003-2.383c.049-5.533.049-5.533 1.165-7.765"/><path fill="#aefa13" d="M142 160h51v1h-26l-1 2-3.812-.5c-5.402-.61-10.759-.591-16.188-.5.984 1.204.984 1.204 2.857 1.123l2.477-.003 2.835.004 3.134-.01h3.281c3.598 0 7.197-.009 10.795-.016l7.462-.005q8.835-.005 17.668-.021 11.042-.017 22.083-.023 19.704-.016 39.408-.049l1-3h12v3h23v-3h10v3l20 1 1 2-193-1v-1l12-1-2-1z"/><path fill="#659025" d="M50 177h2v2h-2v8h-2v98h2v6l1.875.688c2.818 1.74 3.244 3.157 4.125 6.312.125 2.813.125 2.813 0 5-8.289-7.393-10.318-18.34-11.162-29.063-.25-5.116-.21-10.23-.166-15.351l.006-4.887q.006-5.08.04-10.16c.03-4.304.04-8.608.044-12.912q.01-6.24.035-12.479l.006-2.342C44.909 182.09 44.909 182.09 50 177"/><path fill="#aefa15" d="M125.848 119.77h2.901c3.105.004 6.21.022 9.314.043l6.38.019c15.867.066 31.708.409 47.557 1.168v1h-17v2h-15v2h-22v-2h-10l-1 4-1-4c-4.824-.193-8.496.243-13 2l-1-1-1 3h-2v3l-5-2c1-3 1-3 3-4.062l2-.938 1-2c5.237-2.377 10.218-2.275 15.848-2.23"/><path fill="#acf910" d="M400 184h2v5h5l-1 99h-4v-8h2v-8h-2c-.108-8.186-.012-16.316.409-24.492.584-11.417.44-22.635-.159-34.047-.238-4.647-.262-9.246-.187-13.899.055-5.524-.571-10.248-2.063-15.562"/><path fill="#abf425" d="M406 291h2c-2.402 8.297-5.8 15.415-12.184 21.29-1.91 1.798-3.566 3.703-5.253 5.71-2.854 3.308-5.901 6.108-9.231 8.926-5.003 4.45-9.635 9.306-14.332 14.074l-1-2 1-3h2l.313-2.312c.73-2.859 1.457-3.845 3.687-5.688l-1-3 5-1 1-3h5l-.312-2.25C383 316 383 316 385.5 313.688L388 312l-1-5 4-1v2c3.26-1.727 3.26-1.727 4-5.062l1-2.938 3-1c1.699-2.498 1.699-2.498 3-5l4 1z"/><path fill="#88c523" d="M102 349h4v2l1.934.148 2.504.227c.823.07 1.647.14 2.496.21L115 352l1 2 230 1v-2h6c-6.375 4.25-6.375 4.25-10.001 4.242l-2.473.009-2.716-.022-2.887.002c-3.206-.001-6.411-.017-9.617-.032l-6.879-.01q-9.36-.015-18.72-.056-7.807-.03-15.618-.051a23969 23969 0 0 1-36.851-.139l-2.11-.009c-11.272-.05-22.544-.079-33.816-.099a13461 13461 0 0 1-34.728-.108q-9.747-.045-19.494-.058-9.171-.012-18.342-.074-3.364-.017-6.729-.014c-3.065.002-6.129-.02-9.194-.049l-2.682.02c-5.75-.088-10.404-1.148-15.143-4.552z"/><path fill="#6c9914" d="m102 195 4 1-.027 3.155q-.122 14.72-.18 29.443c-.021 5.045-.05 10.09-.095 15.136q-.063 7.305-.078 14.608a729 729 0 0 1-.043 5.573 657 657 0 0 0-.031 7.806l-.044 2.326c.038 4.944 1.011 7.447 4.498 10.953h-7c-1.15-4.123-1.133-8.097-1.114-12.349v-2.543c0-2.77.009-5.54.016-8.311l.005-5.767q.006-7.585.024-15.171.014-7.742.02-15.484.016-15.187.049-30.375"/><path fill="#b7f448" d="m333 162 4 2-1 4-3-1 1 4h-2v2h-2v-2h-2v-2h-2v-2H128v-1q39.011-.035 78.023-.052 18.112-.007 36.226-.023 15.784-.015 31.568-.02 8.36 0 16.72-.01 7.866-.011 15.73-.008 2.89 0 5.781-.006 3.939-.006 7.878-.001l2.323-.01c3.39.01 6.512.063 9.751 1.13z"/><path fill="#aef23e" d="M362 337h2v4l2 1c-10.277 10.824-10.277 10.824-16.875 11.25L346 353v2H208v-1l2.113-.01q25.439-.121 50.876-.278 12.302-.076 24.604-.134 10.721-.05 21.442-.12 5.678-.04 11.355-.061 5.344-.02 10.687-.064c1.931-.014 3.863-.017 5.795-.02l3.484-.035 3.028-.016c2.707-.271 4.352-.771 6.616-2.262.805-2.05.805-2.05 1-4l3.375-.875c3.628-.817 3.628-.817 5.625-3.125h3z"/><path fill="#abf320" d="m102 281 1 4h7l1 7 5 1 1 5 5 1v2h2v2h2l2 4 56 1v1l-56 1v2l-8-2 1-2c-.4-2.098-.4-2.098-1-4l-4 1-2-5v2l-2-1v-4l2-1h-3c-2.125-.375-2.125-.375-4-1-1.478-2.957-1.06-5.742-1-9h-3l-1 3h-2c.523-2.763 1.109-5.326 2-8"/><path fill="#aced2d" d="m102 127 2 1c-.475 4.271-2.918 6.205-6 9l-2.187 1.625c-2.081 1.423-2.081 1.423-3.813 4.375l-3-1v5l-3 1c-1.813 1.864-1.813 1.864-3.562 4.063A73 73 0 0 1 79 156h-2v2h-4l-1 5h-2l-1 4h-2v2l-5 1 2 6-2.687-.312c-3.462.022-3.462.022-6.063 2.5-2.085 2.606-3.257 4.652-4.25 7.812h-1v-7h2v-2h4v-4h2v-2h2v-2h2v-2h2v-2h2v-2h2v-2h2v-2h2v-2h2v-2h2v-2h2v-2h2v-2h2v-2h2v-2h2v-2h2v-2h2v-2h2v-2h2v-2h2v-2h2v-2h2v-2h2z"/><path fill="#8dc128" d="M128 167h198v2h2v2h2l-1 2c-2.5-1.375-2.5-1.375-5-3v-2H128z"/><path fill="#aef633" d="m115 352 109 1v1c-12.722 1.006-25.37 1.132-38.125 1.098l-6.254-.005q-8.147-.006-16.294-.024-8.348-.014-16.694-.02-16.316-.016-32.633-.049z"/><path fill="#5c831b" d="m331 301 1 4-196-1v-1l3.027-.013q36.402-.155 72.805-.326 17.603-.085 35.207-.158 15.338-.065 30.675-.14 8.126-.04 16.252-.072 7.64-.03 15.279-.071 2.812-.015 5.625-.023 3.822-.014 7.645-.039l2.278-.003c3.391.273 3.391.273 6.207-1.155"/><path fill="#affb10" d="M275 49c2.987.498 4.393 1.262 7 3v2l-4 1v-3l-2.194.492c-2.645.479-5.015.631-7.697.628l-2.902.004-3.148-.01h-3.342c-3.641 0-7.283-.009-10.924-.016l-7.58-.005q-8.95-.005-17.901-.021-10.194-.016-20.387-.022Q180.963 53.034 160 53v-1l1.778-.028q21.381-.343 42.761-.702 10.34-.175 20.68-.34 9.968-.16 19.937-.33 3.813-.066 7.626-.124 5.32-.084 10.64-.179l3.219-.046 2.91-.055 2.546-.042c1.913.052 1.913.052 2.903-1.154"/><path fill="#aefa13" d="M86 335h5v3l2.375.438C96 339 96 339 98 340l1-4h3v2l6 2 1 5h2l2 7-7-1v-2l-2.61.332c-4.483-.44-6.582-2.598-9.64-5.644l-1.602-1.514C89.775 339.9 87.83 337.744 86 335"/><path fill="#abf021" d="M353 236h1q.037 9.29.055 18.58.008 3.16.02 6.32c.013 3.028.018 6.056.023 9.084l.015 2.854v2.669l.007 2.342c-.177 3.166-.525 5.426-2.558 7.901C350 287 350 287 348 287v2l2 1-1 4-6 1v2c-2.818 2.818-4.286 3.946-8.312 4.25L332 301c3.705-4.506 7.61-8.769 11.688-12.937l1.44-1.506c1.233-1.245 2.549-2.408 3.872-3.557h3z"/><path fill="#aef71b" d="M355 221h1c1.207 10.578 1.463 21.15 1.722 31.787q.09 3.474.207 6.947c.113 3.365.198 6.729.278 10.094l.12 3.125c.105 5.957-.143 9.619-4.327 14.047h-3v2h2v5h-3l-2-7h2l1-3h2v-4h2z"/><path fill="#b9ed55" d="M150 47h134v1H154l-1 5h-2l-1 2z"/><path fill="#b5f633" d="M101 197h1v83h-1v-6h-2l.234-2.55c1.052-13.494.652-26.931.329-40.45q-.081-3.648-.159-7.297Q99.212 214.852 99 206h2z"/><path fill="#96cf33" d="M56 303h2v2h2v2l1.813-1.062C64 305 64 305 67 306c2.025 3.976 3 6.505 3 11h2v2h2v2h2v2h2v2l2.313.375C83 326 83 326 86 328c.188 3.625.188 3.625 0 7-5.071-4.248-9.84-8.68-14.5-13.375l-1.987-1.997C57.493 307.478 57.493 307.478 56 303"/><path fill="#afe936" d="M110 285c2.616 2.612 5.228 5.228 7.824 7.86l2.864 2.89 1.47 1.496c2.66 2.72 2.66 2.72 5.842 4.754v4h83v1h-84l-1-4h-2v-2h-2v-2l-5-1-1-5-2.437.063C111 293 111 293 110 292q-.061-3.5 0-7"/><path fill="#5e8915" d="m103 123 1 4h-2v2h-2v2h-2v2h-2v2h-2v2h-2v2h-2v2h-2v2h-2v2h-2v2h-2v2h-2v2h-2v2h-2v2h-2v2h-2v2h-2v2h-2v2h-2v2h-2v2h-2v2h-2v2h-2v2h-2v4l-4-1a1497 1497 0 0 1 15.313-16.875l1.524-1.657A886 886 0 0 1 73 153l2.23-2.383C77 149 77 149 79 149v-2h2v-2h2v-2c1.504-1.48 1.504-1.48 3.563-3.187C92.612 134.66 98.019 129.189 103 123"/><path fill="#a7fd15" d="M257.066 317.867q2.363 0 4.724-.003 4.898-.002 9.794.006 6.254.006 12.507-.004 4.856-.005 9.71 0 2.307 0 4.614-.002 3.218-.003 6.435.007l3.682.002c3.551.13 6.962.562 10.468 1.127v1c-71.657 1.816-71.657 1.816-95 0v-1c11.037-.815 22.001-1.15 33.066-1.133"/><path fill="#aef225" d="M406 291h2c-2.396 8.278-5.782 15.413-12.164 21.266-2.658 2.51-4.932 5.317-7.258 8.132C387 322 387 322 384 323v-2h2v-2h2l.438-2.312C389 314 389 314 390 311l3-1c.916-2.302.916-2.302 1.5-5 .656-2.75.656-2.75 1.5-5l3-1c1.699-2.498 1.699-2.498 3-5l4 1z"/><path fill="#b0f71b" d="M391 167h3v2c.76-.07 1.521-.14 2.305-.21 2.695.21 2.695.21 4.39 1.608C404.644 175.858 408 182.073 408 189c-3 1-3 1-6 0v-5h-2l-1-7-3 1-4-4 3-1-2-1.875C391 169 391 169 391 167"/><path fill="#adfb13" d="m107 132 3 1-1 3h-3l-.25 2.313c-.896 3.21-1.966 3.98-4.75 5.687l-3-2-2 3h-3l1 3-1 2c-1.937-.375-1.937-.375-4-1-1.333-2.667-.671-4.167 0-7h3l.188-1.875C93 138 93 138 95.375 136.813L98 136l3-1h3c1.688-1.438 1.688-1.438 3-3"/><path fill="#acf41d" d="M400 184h2v5h5l-1 99h-1l-.018-3.408q-.086-15.912-.218-31.824c-.044-5.454-.084-10.907-.11-16.36q-.04-7.898-.117-15.795-.025-3.01-.035-6.02c-.01-2.815-.037-5.63-.07-8.445l.005-2.502c-.086-5.305-1.134-8.871-3.437-13.646-.398-1.988-.755-3.987-1-6"/><path fill="#aae33e" d="m111 117 2 1c2.38.093 4.731.126 7.112.114h2.217c2.424 0 4.848-.009 7.273-.016l5.036-.005q6.633-.006 13.266-.024 6.766-.014 13.534-.02 13.281-.016 26.562-.049v1h-72v2l-2.875.25L110 122c-1.15 1.967-1.15 1.967-2 4-2.125.75-2.125.75-4 1 .155-2.71.482-4.466 2.402-6.445 1.496-1.232 3.044-2.398 4.598-3.555"/><path fill="#92c731" d="M342 117c4.437.504 6.527 1.967 9.75 5l2.602 2.438c9.1 8.804 9.1 8.804 11.648 11.562v1c-3.187.375-3.187.375-7 0-2.247-1.802-3.38-3.545-5-6v-2h-2c-1.593-1.455-3.009-3.01-4.437-4.625-1.817-1.598-3.205-1.968-5.563-2.375z"/><path fill="#b9f344" d="M48 187h1l.018 3.535q.086 16.487.218 32.974c.044 5.651.084 11.302.11 16.953q.04 8.18.117 16.359.025 3.12.035 6.242c.01 2.914.037 5.827.07 8.74l-.005 2.61c.076 4.804.633 7.534 3.437 11.587-.312 2.813-.312 2.813-1 5h-2v-6h-2z"/><path fill="#aefa08" d="M335 170h5v4l1.715.332 2.223.48 2.214.458L348 176l1 3 3 1v10h-2a197 197 0 0 1-3-5c-2.128-2.59-3.697-3.43-7-4v-2h-2v-2h-2z"/><path fill="#aae733" d="m332 171 3 1 1 5h2v2h2v2l2.188.188c3.712 1.072 5.324 2.91 7.812 5.812l1 3 2 1v4c-2.25-.125-2.25-.125-5-1a223 223 0 0 1-2.751-4.231c-2.415-3.42-5.508-6.232-8.499-9.144l-1.969-1.941Q332.397 176.335 330 174l2-1z"/><path fill="#adf034" d="M126 169v2h-2v2h-2v2h-2v2h-2v2h-2v2h-2v2h-2v2h-2v2h-2v2h-2v6h-3c-.48-3.206-.49-5.284 1.371-8.004l1.692-2.059c2.604-3.019 2.604-3.019 2.812-6.937l-.875-2h4l1 2c4.006-2.114 6.268-4.42 9-8 2-1 2-1 4-1"/><path fill="#aefd0d" d="M57 176c.78 2.674 1.18 5.304 1.5 8.063.357 3.832.357 3.832 1.5 6.937.084 2.357.107 4.716.098 7.074l-.005 2.072c-.005 2.18-.018 4.361-.03 6.542q-.008 2.22-.014 4.439Q60.032 216.564 60 222l-2 1-.06-2.675q-.118-4.934-.257-9.868a902 902 0 0 1-.105-4.262 881 881 0 0 0-.164-6.144l-.095-3.73c-.307-3.197-1.09-5.391-2.319-8.321.375-3.312.375-3.312 1-6l-4 1c1.112-3.335 2.474-4.637 5-7"/><path fill="#acfc11" d="M320 311v3q-6.754.075-13.507.11-2.297.015-4.595.04c-2.202.025-4.403.036-6.605.045l-2.074.032c-3.65 0-5.09-.141-8.219-2.227 3.363-1.682 7.17-1.39 10.875-1.562l2.588-.127c18.453-.853 18.453-.853 21.537.689"/><path fill="#73a12b" d="M285 49h2v47l-3 1z"/><path fill="#aafa13" d="M336 340h2v2h2v9h4l.438-1.875C345 347 345 347 346 345c2.313-.812 2.313-.812 5-1 2.313 1.438 2.313 1.438 4 3h-6l-1 4c-4.873 1.591-8.808 2.212-14 2l1-2c.228-1.87.41-3.747.563-5.625l.253-3.04z"/><path fill="#78a918" d="M47 254h1v31h2v6l1.875.688c2.818 1.74 3.244 3.157 4.125 6.312.125 2.813.125 2.813 0 5-5.395-4.812-7.896-9.908-9-17-.08-2.495-.108-4.992-.098-7.488l.005-2.131c.005-2.231.018-4.462.03-6.693q.008-2.28.014-4.557.017-5.565.049-11.131"/><path fill="#aeef36" d="M362 337h2v4l2 1c-4.312 4.666-8.329 8.107-14 11v-2h-4l1-4 3.375-.875c3.628-.817 3.628-.817 5.625-3.125h3z"/><path fill="#aef525" d="m69 312 1.688.875c2.397 1.166 4.828 2.159 7.312 3.125v2l6 2-2 2 4 6-1.75-.937c-2.093-.989-3.995-1.58-6.25-2.063v-2h-2v-2h-2v-2h-2v-2h-2z"/><path fill="#94cc2b" d="M68 317h4v2h2v2h2v2h2v2l2.313.375C83 326 83 326 86 328c.188 3.625.188 3.625 0 7-4.537-3.73-8.78-7.67-12.937-11.812l-1.506-1.492C68 318.124 68 318.124 68 317"/><path fill="#b0f914" d="M128.94 307.773h3.7l3.997.032 4.09.008c3.585.008 7.17.028 10.756.05 3.66.02 7.32.03 10.98.04 7.179.02 14.358.055 21.537.097v1l-56 1v2l-8-2c3.487-2.324 4.826-2.244 8.94-2.227"/><path fill="#a6e91c" d="M353 236h1q.037 9.29.055 18.58.008 3.16.02 6.32c.013 3.028.018 6.056.023 9.084l.015 2.854v2.669l.007 2.342c-.177 3.166-.525 5.426-2.558 7.901C350 287 350 287 348 287v2l-4-1c2.313-2.5 2.313-2.5 5-5h3z"/><path fill="#7baf26" d="M110 285c2.616 2.612 5.228 5.228 7.824 7.86l2.864 2.89 1.47 1.496c2.66 2.72 2.66 2.72 5.842 4.754v3h-2v-2h-2v-2h-2v-2l-5-1-1-5-2.437.063C111 293 111 293 110 292q-.061-3.5 0-7"/><path fill="#83ba27" d="M102 349h4v2l1.934.148 2.504.227c.823.07 1.647.14 2.496.21L115 352l1 2 26 1v1a986 986 0 0 1-12.378.22q-2.1.03-4.201.082c-14.653.355-14.653.355-21.421-4.302z"/><path fill="#85b42d" d="M386 157c4.526 3.678 8.394 7.41 12 12h-4v-2l-2.312-.437C389 166 389 166 386 165c-1.187-2.562-1.187-2.562-2-5h2z"/><path fill="#aeec3d" d="M375 149c4.6.27 6.724 2.256 9.863 5.332C386 156 386 156 386 160h-3v-2l-1.75-.187c-3.197-1.155-4.394-3.028-6.25-5.813z"/><path fill="#93c92c" d="M86 335h5v3l1.813.313c2.521.792 3.584 1.603 5.187 3.687v3h4v4c-6.533-2.96-11.818-8.25-16-14"/><path fill="#acf325" d="m333 162 4 2-1 4-3-1 1 4h-2v2h-2v-2h-2v-2h-2l-1-3 7 1z"/><path fill="#adfb0e" d="M240 121h26v3c-6.559.126-6.559.126-8.75-.5-3.317-.737-6.62-.604-10-.562l-2.113.013q-2.57.02-5.137.049z"/><path fill="#82b62a" d="M380 323h2c-.581 3.428-1.686 5.045-4.16 7.453l-1.904 1.875-1.998 1.922-2.01 1.969A837 837 0 0 1 367 341l-1-2 1-3 3-1a90 90 0 0 0 2-4l2-1 1-3 3-1z"/><path fill="#adfb17" d="m60 292 2 2-1.125 3.125c-.95 4.209-.578 5.997 1.125 9.875h-2v-2h-2v-2h-2c-.812-3.25-.812-3.25-1-7 2.438-2.437 2.438-2.437 5-4"/><path fill="#affa14" d="M335 170h5v4l4 2-2 3v2h-2v-2h-2v-2h-2z"/><path fill="#a7eb2a" d="M378 321h6l-1 4-1-2-1.812 2C378 327 378 327 375 327l-.375 1.938L374 331l-2 1c-1.134 2.017-1.134 2.017-2 4-.75-1.75-.75-1.75-1-4 1.938-2.25 1.938-2.25 4-4l-1-3 5-1z"/><path fill="#b2f037" d="M391 167h3v2l2.188-.375c3.214.429 3.607.876 5.625 3.25C404 175 404 175 404 177h-4l-1-2-1.812-.875c-2.607-1.34-4.265-2.927-6.188-5.125z"/><path fill="#5e8d17" d="M67 159h3v2h-2v2h-2v2h-2v2h-2v2h-2v2h-2v2h-2v4l-4-1 1.758-1.941 2.367-2.621 2.484-2.747a204 204 0 0 0 5.766-6.816z"/><path fill="#aff621" d="M342 120v2l5 1c-2.62 1.746-4.038 2.387-7 3l-2-4-19-1v-1c3.27-.197 6.541-.38 9.813-.562l2.814-.17 2.705-.147 2.491-.143C339 119 339 119 342 120"/><path fill="#aef42a" d="M102 345h9l2 7-7-1v-2h-4z"/><path fill="#78ab20" d="M398 310a85 85 0 0 1-13 13l-1-2h2v-2h2l.438-2.312c1.127-5.388 1.127-5.388 3.375-6.938 2.556-.876 3.652-.494 6.187.25"/><path fill="#96cf30" d="m111 117 1 2h4v2l-2.875.25L110 122c-1.15 1.967-1.15 1.967-2 4-2.125.75-2.125.75-4 1 .155-2.71.482-4.466 2.402-6.445 1.496-1.232 3.044-2.398 4.598-3.555"/><path fill="#69961d" d="m332 171 3 1 1 5h2v2h2v2h2l-1 4-11-11 2-1z"/><path fill="#6f9e1c" d="M406 291h2c-1.864 6.44-4.282 14.188-10 18v-4h2v-2h2v-9l4 1z"/><path fill="#85b625" d="M296 167h30v2h2v2h2l-1 2c-2.5-1.375-2.5-1.375-5-3v-2h-28z"/><path fill="#acf913" d="m116 296 1 2 3 1v5l-4 1-2-5v2l-2-1v-4z"/><path fill="#a8fc15" d="m89 320 7 5-1 5c-1.812-.125-1.812-.125-4-1-1.812-2.875-1.812-2.875-3-6z"/><path fill="#94d21e" d="M56 303h2v2h2v2l1.813-1.062C64 305 64 305 67 306c1.188 3.063 1.188 3.063 2 6l-4-2v-2h-3l-1 2a141 141 0 0 1-5-5z"/><path fill="#70a021" d="m343 289 1 4h-2v2h-2v2c-1.75 2.188-1.75 2.188-4 4l-4-1z"/><path fill="#8dc12c" d="M50 291c2.781 1.02 3.818 1.664 5.25 4.313.755 2.705.91 4.894.75 7.687-3.408-2.884-4.866-4.37-5.812-8.812z"/><path fill="#aefb1c" d="M57 176c1.001 3.31 1.104 6.3 1.063 9.75l-.028 2.984L58 191l-3-1c-.125-5.75-.125-5.75 1-8l-4 1c1.112-3.335 2.474-4.637 5-7"/><path fill="#b2ec44" d="M58 171h2c-1.41 4.487-3.718 6.718-7 10-1.319 2.665-1.319 2.665-2 5h-1v-7h2v-2h4v-4h2z"/><path fill="#a9fb13" d="M376 314h7l-1 2h-2v2l2 2a88 88 0 0 1-5 1c-1-1-1-1-1.062-4.062z"/><path fill="#86b92e" d="M404 177c2.421 2.421 2.528 3.801 3.125 7.125l.508 2.758L408 189l-3 1-3-2h2z"/><path fill="#acfc16" d="M346.125 176.25C348 177 348 177 349 179l3 1v5h-2c-3-3.462-3-3.462-3-6l-4-1-1 3-1-3c3-2 3-2 5.125-1.75"/><path fill="#78ab1f" d="M68 317h4v2h2v2h2v2h2l-1 4a1766 1766 0 0 1-4.5-4.437l-2.531-2.497C68 318 68 318 68 317"/><path fill="#adf914" d="m69 312 1.688.875c2.397 1.166 4.828 2.159 7.312 3.125v2l6 2c-1.687 1.188-1.687 1.188-4 2-2.75-1.25-2.75-1.25-5-3v-2l-1.875-.812C71 315 71 315 69 312"/><path fill="#a8fc12" d="M390 288h6c-.506 2.169-1 4-2 6h-4z"/><path fill="#aff328" d="M86 329c3.161 1.37 3.993 1.99 6 5v3l2 1h-3v-3h-5z"/><path fill="#8bc030" d="M352 275h1c.081 1.437.14 2.874.188 4.313l.105 2.425C353 284 353 284 351.613 285.793 350 287 350 287 348 287v2l-4-1c2.313-2.5 2.313-2.5 5-5h3z"/><path fill="#b4f82c" d="M100 262c2.17 4.34 2.213 6.484 2.125 11.25l-.055 3.828L102 280h-1v-6h-2z"/><path fill="#507f0c" d="m77 149 1 4h-2v2h-2v2h-2v2l-4-1 1.715-1.46 2.222-1.915 2.215-1.898c1.932-1.604 1.932-1.604 2.848-3.727"/><path fill="#aefa14" d="M85 148h2v2h-2zm-2 2 2 1c.625 3.063.625 3.063 1 6l-7-1z"/><path fill="#94d41d" d="m374 145 4 4h-3l2 5-2 2-1-2h-2v-2h2l-3-4h3z"/><path fill="#90c82a" d="M362 337h2v4l2 1-6 5-1-3h2z"/><path fill="#a6e23c" d="M406 281h1l1 10h-2v4h-3l.434-1.672c.612-2.515 1.127-5.038 1.628-7.578l.536-2.703z"/><path fill="#adf71c" d="m124 165 2 1-2 4h-2l-1 3h-2l-2 4-1-3z"/><path fill="#abfc19" d="m355 137 4 1-1 5-4-1z"/><path fill="#86b82e" d="M342 117c3.688.498 5.605 1.1 8 4l-8 1z"/><path fill="#a8fc19" d="M346 295h5c-1.25 2.5-1.25 2.5-3 5h-4z"/><path fill="#578115" d="M342 185h4v2h2v4h2l-1 4q-1.471-1.935-2.937-3.875l-1.653-2.18C343 187 343 187 342 185"/><path fill="#a7fe18" d="m98 178 5 1v4h-5l-1-3z"/><path fill="#75a329" d="M378 149q1.723 1.432 3.438 2.875l1.933 1.617C385 155 385 155 386 157l-5-1-1-3h-2z"/><path fill="#a6fb11" d="M368 319c3 1 3 1 4 3 3.03.658 3.03.658 6 1l-1 2h-6v-2h-3z"/><path fill="#a7fd15" d="M117 162c.625 1.875.625 1.875 1 4l-2 2h-4c.25-1.875.25-1.875 1-4 2.063-1.25 2.063-1.25 4-2"/><path fill="#71a026" d="M366 137q1.723 1.432 3.438 2.875l1.933 1.617C373 143 373 143 374 145h-4v-2h-2v-2h-2z"/><path fill="#aafa16" d="M352 339c3.821.53 6.062 1.497 9 4l-6 2v-2q-1.47-1.53-3-3z"/><path fill="#aded39" d="M56 299c1.875.625 1.875.625 4 2 1.25 3.125 1.25 3.125 2 6h-2v-2h-2v-2h-2z"/><path fill="#b0ed3c" d="m49 282 3 1c1.097 3.29.8 4.713 0 8h-2v-6h-2z"/><path fill="#81ae2e" d="M398 169c4.875 4.625 4.875 4.625 6 8h-4v-4h-2z"/><path fill="#b1f432" d="M335 172h2v4l5 1v4h-2v-2h-2v-2h-2z"/><path fill="#94ce21" d="m386 157 4 4h-2l1 4h-3l-2-5h2z"/><path fill="#7dab29" d="M94 343h4v2h4v4c-3.366-1.443-5.51-3.333-8-6"/><path fill="#a9f914" d="m340 298 2 1v5c-4 0-4 0-6-1v-2l4-1z"/><path fill="#96cf30" d="M110 285c2 1.75 2 1.75 4 4v4l-4-1z"/><path fill="#85b92f" d="M103 281c2.375.313 2.375.313 5 1l2 3h-7z"/><path fill="#aefe16" d="m62 178 3 1v6l-3 1z"/><path fill="#6c991b" d="M67 159h3v2h-2v2h-2v2h-2v2h-2c1.37-2.95 2.826-5.565 5-8"/><path fill="#aafc20" d="M370 153h5v5l-5-1z"/><path fill="#abf717" d="m372 328 2 1-1.937 1.25c-2.273 1.928-2.665 2.864-3.063 5.75h-2v-6c2.375-1.062 2.375-1.062 5-2"/><path fill="#aff232" d="m342 293 2 1c-1.238 3.714-2.852 4.774-6 7h-2l2-4h2v-2h2z"/><path fill="#86b72a" d="m332 171 3 1 1 5c-1.875-.312-1.875-.312-4-1l-2-3h2z"/><path fill="#aef917" d="M347 125c2.688.875 2.688.875 5 2v2h-8v-2z"/><path fill="#adfa0d" d="M93 332h3v6l-2 1v-2h-2z"/><path fill="#a9fc13" d="M362 282c2 1.313 2 1.313 4 3v3h-5z"/><path fill="#6e9e16" d="m103 123 1 4h-2v2h-2v2h-2c1.186-3.375 2.276-5.647 5-8"/><path fill="#71a020" d="m356 347 4 1-8 5v-4h4z"/><path fill="#aaf02d" d="M360 336h6l1 3-1 2h-2v-4l-1 2h-2z"/><path fill="#a9fd17" d="M320 314h7l1 2-7 1z"/><path fill="#adfb17" d="m102 281 .313 1.938L103 285l3 1h-3l-1 3h-2c.523-2.763 1.109-5.326 2-8"/><path fill="#b2f135" d="M398 304v5h-4v-4c2-1 2-1 4-1"/><path fill="#adea3c" d="M106 285h4v6a91 91 0 0 1-4-4z"/><path fill="#b6f043" d="M401 177h3v7c-1.5-1.25-1.5-1.25-3-3z"/><path fill="#adf919" d="m77 156 3 1v3h-7v-2h4z"/><path fill="#afeb3e" d="M84 145h2l-1 5-5 1v-2h2v-2h2z"/><path fill="#b0ec3e" d="M362 137h4v4h2l-1 2c-1.937-.75-1.937-.75-4-2-.75-2.125-.75-2.125-1-4"/></svg>